PathFileType	4	(X/Y/Z)	C:\Users\Owen\Repositories\CapacitiveSensingKinematics\CSOptimalControl\OutputData\FilteredlIMUGyros.trc
DataRate	CameraRate	NumFrames	NumMarkers	Units	OrigDataRate	OrigDataStartFrame	OrigNumFrames
100	100	25	8	m	100	6174	7057
Frame#	Time	/bodyset/torso/torso_imu_offset			/bodyset/pelvis/pelvis_imu_offset			/bodyset/tibia_r/tibia_r_imu_offset			/bodyset/femur_r/femur_r_imu_offset			/bodyset/tibia_l/tibia_l_imu_offset			/bodyset/femur_l/femur_l_imu_offset			/bodyset/toes_r/toes_r_imu_offset			/bodyset/toes_l/toes_l_imu_offset			
		X1	Y1	Z1	X2	Y2	Z2	X3	Y3	Z3	X4	Y4	Z4	X5	Y5	Z5	X6	Y6	Z6	X7	Y7	Z7	X8	Y8	Z8	

6175	61.74	-0.9027115248122303	-0.1735528938722888	-0.3028301716170996	-0.7604298742422902	0.2268735780139054	-0.2058726829113985	-1.195040767441319	0.1007892557740783	-1.822272353306597	-0.9513408735487652	1.138681084278028	1.922973471410019	0.06125367292134209	-0.01844752835409569	0.8760747247163334	-0.6498185916726738	-0.3795823120000965	0.7338945378224428	-1.459306704841206	-4.635535031748595	-1.962403600286152	0.05381725656770195	-0.0279376687337946	-0.01667188135240232	
6176	61.75	-0.9405819702804387	-0.2326229506213971	-0.3101741228736331	-0.6306199351581494	0.1992305323131424	-0.1159241789147769	-1.275564979302326	-0.02834150708195506	-1.663688412817632	-0.8053452374696696	1.07270123733639	1.906567840722084	-0.2827706034309244	0.02795223842117858	0.8527892073786991	-0.7854238163514849	-0.3581356137987311	0.6702977943879881	-1.974104963080005	-4.065695249829318	-2.192930141018592	0.06540803173537936	-0.03243257880285061	-0.02294908880248612	
6177	61.76	-0.9576447323019878	-0.2820146560656417	-0.3029682658748288	-0.5128837466734448	0.1545739202674745	-0.03105698932648926	-1.356034644931153	-0.1882553158394323	-1.492355575488332	-0.656698752571511	0.9998574440418315	1.872422077421706	-0.4095058089141959	0.04552302879807935	0.8424590867057486	-0.8115503550854462	-0.3501235166468657	0.6121326886740623	-2.50076340484357	-3.303622126897619	-2.482200163590635	0.06384958421160937	-0.03745211938148748	-0.01887596813448233	
6178	61.77	-0.953518350288306	-0.3221329958645216	-0.284154626003367	-0.4141713964688095	0.10273894735244	0.04143894698095079	-1.407568124485663	-0.3685577709364767	-1.307498247810055	-0.5335087584762209	0.9250418129691887	1.820326866039646	-0.3240583788825395	0.04376455021672451	0.8433090099140813	-0.725356423093537	-0.3563081609198817	0.5620093274232908	-2.993071040924263	-2.309506855953033	-2.808689372898276	0.05234805995240079	-0.04217408664579003	-0.004330756542719144	
6179	61.78	-0.9298115108041007	-0.3528444593175862	-0.2581965249460018	-0.3378348359685981	0.05143463202123245	0.0997450535344991	-1.405190979266365	-0.5567150311724375	-1.107162938086213	-0.4557628020554781	0.8553288584523998	1.751447307854	-0.07550841984398901	0.03476564857439247	0.8495460560296277	-0.5469771015145107	-0.3768555776753865	0.5249673980922904	-3.338632474585531	-1.102193945930119	-3.117590945485726	0.03659930069894612	-0.04652536019329933	0.01745812114079045	
6180	61.79	-0.8896638365226234	-0.3732626310787245	-0.2298589745710403	-0.2844995326427445	0.005732082983444501	0.1460010004980353	-1.351702440401008	-0.7447207909341205	-0.8881806580806716	-0.4302917233928745	0.7971995721949998	1.670764681165689	0.2552215215639555	0.03073731863247905	0.8564611997408701	-0.3084122684052839	-0.4099599063958898	0.5046039224327105	-3.38971940643887	0.1960828973164124	-3.334164476857616	0.02237267476598837	-0.05089515697639506	0.04138690890630006	
6181	61.8	-0.8373014432649515	-0.3825190820231755	-0.2029696606857929	-0.2528966776436219	-0.03138033566212976	0.1838191420960706	-1.289212223985779	-0.9317885993182277	-0.6426596195546155	-0.4499807903139543	0.7534836044418348	1.58681914119237	0.5783714535262944	0.04121131751750235	0.8618114536558069	-0.042642378375535	-0.4487572213981864	0.4995173134771795	-3.063078120149959	1.395231599721284	-3.388589414625806	0.01387456741278656	-0.05621383146199626	0.06261822936990431	
6182	61.81	-0.7778231797768052	-0.3806183061136045	-0.1795014870937618	-0.2406721093534713	-0.05838154118828397	0.2164223922358658	-1.286588628616341	-1.118489338431961	-0.3550946060252888	-0.4968049857470215	0.7220547727057018	1.508786042380578	0.823363019392816	0.06963799736522835	0.8641075460769073	0.2212787837249396	-0.4818590268799205	0.502781044541351	-2.418502137394227	2.338400881059051	-3.236246251232707	0.01245761086647958	-0.06332597459582966	0.07833238518272378	
6183	61.82	-0.7169622376961408	-0.3686919352101752	-0.159478299028389	-0.2448182821415102	-0.07482642431932833	0.2461009378209093	-1.402572876567012	-1.296881784537119	-0.00854680440718586	-0.5471095377792643	0.6968401430289429	1.443049625048643	0.9561697470837593	0.1123030128112335	0.8622698646596544	0.4596060911157516	-0.498461338492892	0.5054350025097708	-1.635472111666939	2.965104588747426	-2.864975539021556	0.01635217853373922	-0.07200143215818972	0.08836243671998685	
6184	61.83	-0.6604691016371116	-0.3490135157414292	-0.1418358186151394	-0.2616219538508169	-0.08090172907666508	0.2745220680201743	-1.644337676063948	-1.447412994493714	0.399867843533306	-0.5770933580756791	0.6703672560235492	1.391250704459728	0.9795312180889356	0.1608711114113356	0.8575302440497047	0.6557971120744295	-0.4932586511152451	0.5004941370635875	-0.9218162106344572	3.302459292999195	-2.293212377800364	0.0218633401392973	-0.08108661305213451	0.09466707664723821	
6185	61.84	-0.613200164880654	-0.3250464633761312	-0.1256065974843746	-0.2863939346967722	-0.07683730727791782	0.3027922176205931	-1.949556205137578	-1.545980996736126	0.846891428781644	-0.5674771788675899	0.6369139796880685	1.350566665029721	0.9223775158034606	0.20714467908843	0.8536014222886021	0.8018560009024663	-0.4674064864323296	0.4840823253576946	-0.4312063230162693	3.428756571550873	-1.565139386035615	0.02508098027239993	-0.08924750658312235	0.09998782347955326	
6186	61.85	-0.5783643870564039	-0.3010128009252986	-0.1108299965597801	-0.3133054614225441	-0.06255868458295727	0.3308964938183673	-2.204962385985312	-1.575064333954417	1.287316178643187	-0.5070104734726331	0.5951280283310061	1.315953751614579	0.8258731007570936	0.2465246738814169	0.8539278602921204	0.8966870612924067	-0.4267589775999651	0.4553550198940099	-0.2228684435332845	3.439897314053367	-0.7452914939173059	0.02344754547859042	-0.09518888840292471	0.106490869129152	
6187	61.86	-0.5570650729570804	-0.2807881889596821	-0.09876300786259716	-0.3358396254161543	-0.03795485832697494	0.3571853529904874	-2.291419834638119	-1.532339529438304	1.673327054079564	-0.3939126430388372	0.5485532525992869	1.283006826830103	0.7293769142327408	0.2782128198160419	0.859593910223291	0.9424442704924789	-0.379572096892776	0.4171025323297254	-0.2599625405971502	3.423973403547294	0.0882628260725519	0.01662483060303651	-0.0978160939702844	0.1151390464894672	
6188	61.87	-0.5481173186918953	-0.2667654508289652	-0.09095349799261328	-0.3482715304368345	-0.003683183765575193	0.378619631522423	-2.130579050724709	-1.432704859418096	1.975481331958804	-0.2348964672148467	0.5032139841733805	1.249428380162653	0.6591236046654536	0.303353894788039	0.8696335096457851	0.9415580982876727	-0.3337774885908901	0.3753934057107142	-0.4405173309692224	3.44465939818117	0.8547119118488614	0.006072140182178148	-0.09665403538886617	0.1257711553678096	
6189	61.88	-0.5484367000493642	-0.2593509983593714	-0.08793278918920729	-0.3477146377861001	0.037927099363702	0.3917605132491727	-1.709400180639553	-1.301630970597574	2.193418141187648	-0.04295772303082153	0.4635569128118867	1.214123490834053	0.6234935775488769	0.3229937671375516	0.8819788885430632	0.896197666344318	-0.2943316230918384	0.3372403079900054	-0.6528608906754739	3.533653383503609	1.485455434159749	-0.006062044133974299	-0.09198245218120669	0.1374661148078239	
6190	61.89	-0.5540715019788681	-0.2572914942364662	-0.08911388142545068	-0.3353172956564667	0.0825990308617815	0.3939310964041262	-1.076456930202433	-1.163355935556394	2.353998196417499	0.1647722326890391	0.4297767403710765	1.175481479356763	0.6160908615575427	0.3373421650057115	0.8938846968839592	0.81028345991163	-0.262377697804377	0.3082971867137773	-0.8274478502685745	3.691476537878005	1.93780014748533	-0.01785233767998931	-0.08464327044906782	0.1490021508243725	
6191	61.9	-0.561290987430265	-0.2585412283145431	-0.09372609593076332	-0.3154597931274466	0.1250347119410454	0.3840477843398268	-0.3202145644043571	-1.032520732936085	2.499812868564925	0.3687746080681086	0.3985513223114194	1.131445788818612	0.6228597454411089	0.3464214696019656	0.9024650159520361	0.6921019962997438	-0.2365298105701895	0.2921150297686276	-0.9533325829248467	3.895171514775281	2.200257863740582	-0.02815825507292758	-0.0757522236249188	0.1592625528981852	
6192	61.91	-0.5671209279695023	-0.2610801844699018	-0.1012443970681201	-0.2933641855733964	0.1606582343118901	0.3629123603252615	0.4589608240533641	-0.9140037584245839	2.672411883023443	0.5489556649265187	0.3662367964611618	1.081543447292167	0.628480192386997	0.3508838226063623	0.9058246325767724	0.5549567763726696	-0.2149074797899237	0.2900224366965661	-1.055850113670672	4.110292661038228	2.287984570575804	-0.03661947468286081	-0.06641732450683278	0.1673972043801887	
6193	61.92	-0.5693000155897993	-0.263390315250552	-0.1111226827398735	-0.272713105893837	0.1869784642025185	0.332850823281065	1.173952727739692	-0.8074695575846329	2.896823302559791	0.6871910169543665	0.3315674582997613	1.028228669436772	0.6204647551703333	0.3525406297314239	0.9039396017780293	0.4153248111926077	-0.1965729263288932	0.3010232568558657	-1.160383485094203	4.303051164070296	2.233596586630251	-0.04312499379670005	-0.05769051519825883	0.1728209515636941	
6194	61.93	-0.5660749922746764	-0.2646902809854578	-0.1226593882380818	-0.25454506146636	0.2037449604614805	0.2968728480487418	1.764282848850347	-0.711750623697788	3.174042704649344	0.7704636595225187	0.2955013786789944	0.9754896745237714	0.591886157595542	0.354267748719623	0.8982870742254131	0.289841732240727	-0.1817180006712319	0.3223896042805575	-1.268717680023775	4.449133674203391	2.079419286838215	-0.04748651356082446	-0.05055209138312958	0.1752200249499556	
6195	61.94	-0.5562718691930724	-0.2648740938354017	-0.1351126640479204	-0.2375587212074605	0.2121438299835576	0.2579434019498454	2.195420014474751	-0.627712339366663	3.483948280400199	0.7935143543966444	0.2586745859761179	0.9255916147838164	0.5429272813542231	0.358672620473907	0.8905032253832867	0.1921805274681566	-0.1710473101263849	0.3507397096401457	-1.358058229098998	4.538028129517725	1.873198094875838	-0.04962827404410249	-0.04559456909465152	0.174577692534953	
6196	61.95	-0.5396075351654285	-0.264065004008474	-0.147798973666229	-0.2192062343896235	0.2138596281737355	0.218677417628266	2.451539431001562	-0.5587254657013933	3.795409581624987	0.7596412738909621	0.2193755565115917	0.8766626528166011	0.4797570970865694	0.3665041953225779	0.8815302472086805	0.1304094960095416	-0.1651941710567226	0.3826415438638629	-1.398038904368636	4.57290270180531	1.665169163163544	-0.04982478450703728	-0.04265234142029443	0.1712484656180941	
6197	61.96	-0.5167902023446983	-0.262082648758902	-0.1601426454280075	-0.196987863135205	0.2105796955685227	0.1812309840154256	2.529040376930852	-0.5081537941723661	4.077617816909894	0.6789829027419285	0.1743527589139967	0.8230186569568466	0.410913078105231	0.376217483959767	0.8723618178637517	0.1056247189999327	-0.1642012165049488	0.4146369061484287	-1.371496175138221	4.566933005498275	1.503022314887271	-0.04851803643849004	-0.04080367463497094	0.1660928940511554	
6198	61.97	-0.4892492358518065	-0.258223864856113	-0.1716935180689932	-0.1695563415508576	0.2038784339823068	0.1472336276327569	2.431893414109442	-0.4766309130261548	4.308528105517306	0.5650055500747545	0.1217994200422713	0.7573186405861423	0.3443040366670873	0.3846842644629221	0.8648389413709079	0.1124994823844166	-0.1669909173650218	0.443244730112722	-1.283643048236219	4.53811157942274	1.423567626247235	-0.0460465060812176	-0.03907374729686551	0.1605671479188903	
6199	61.98	-0.4587631374610441	-0.2515234011661498	-0.1821284063333889	-0.1371775169417361	0.1950568536338097	0.1177366203067849	2.169426896215347	-0.4628222302405834	4.479213485893847	0.4307212583245334	0.06358529716917913	0.6725979060101779	0.2865336287723593	0.3887306263494374	0.8601861316678162	0.1417515487458678	-0.171336568108819	0.4654956798922013	-1.155779048995671	4.504113963409581	1.44408875106558	-0.04293362463651349	-0.03751921578511783	0.1566067456306344	
